<svg width="124" height="118" viewBox="0 0 124 118" fill="none" xmlns="http://www.w3.org/2000/svg">
<path d="M64.3776 2.93565L76.7914 41.1413C77.26 42.5834 78.6038 43.5598 80.1201 43.5598H120.292C122.714 43.5598 123.721 46.6588 121.761 48.0823L89.2617 71.6947C88.035 72.586 87.5217 74.1658 87.9902 75.6079L100.404 113.814C101.152 116.117 98.5162 118.032 96.5569 116.609L64.0572 92.9962C62.8305 92.105 61.1694 92.105 59.9427 92.9962L27.443 116.609C25.4837 118.032 22.8475 116.117 23.5959 113.814L36.0097 75.6079C36.4783 74.1658 35.965 72.586 34.7383 71.6947L2.23856 48.0823C0.279273 46.6588 1.28621 43.5598 3.70802 43.5598H43.8799C45.3961 43.5598 46.74 42.5834 47.2086 41.1413L59.6223 2.93565C60.3707 0.632372 63.6292 0.632371 64.3776 2.93565Z" fill="#FAFAFA" stroke="#FAFAFA"/>
</svg>
